<svg xmlns="http://www.w3.org/2000/svg" version="1.1" xmlns:xlink="http://www.w3.org/1999/xlink" xmlns:svgjs="http://svgjs.com/svgjs" width="1440" height="560" preserveAspectRatio="none" viewBox="0 0 1440 560"><g mask="url(&quot;#SvgjsMask1002&quot;)" fill="none"><rect width="1440" height="560" x="0" y="0" fill="#0e2a47"></rect><path d="M802.003,634.923C857.015,632.573,903.276,596.394,929.116,547.772C953.345,502.182,950.538,448.239,925.091,403.318C899.247,357.696,854.385,325.722,802.003,323.383C745.252,320.849,688.363,343.216,658.276,391.402C626.461,442.355,624.042,507.769,654.574,559.501C684.646,610.453,742.893,637.448,802.003,634.923" fill="rgba(28, 83, 142, 0.4)" class="triangle-float1"></path><path d="M1431.5993905828122 180.8792346051989L1504.7367247958487 43.327914545861745 1367.1854047365114-29.80941966717458 1294.0480705234752 107.74190039216255z" fill="rgba(28, 83, 142, 0.4)" class="triangle-float3"></path><path d="M799.6375035594472 362.4478239661439L886.9444281965937 347.0532575499344 871.549861780384 259.7463329127879 784.2429371432377 275.1408993289975z" fill="rgba(28, 83, 142, 0.4)" class="triangle-float3"></path><path d="M213.76126562023848 147.1049805439493L148.82142607988857 43.179513017142014 44.89595855308127 108.11935255749194 109.8357980934312 212.0448200842992z" fill="rgba(28, 83, 142, 0.4)" class="triangle-float1"></path><path d="M1426.268044516717 633.6051840742629L1494.6429294112295 499.411916667587 1360.4496620045536 431.0370317730745 1292.0747771100412 565.2302991797503z" fill="rgba(28, 83, 142, 0.4)" class="triangle-float2"></path><path d="M945.103,309.389C989.129,310.345,1027.91,281.789,1049.058,243.163C1069.373,206.058,1067.023,161.598,1046.171,124.792C1024.997,87.418,988.049,58.778,945.103,59.67C903.402,60.537,870.825,92.119,851.057,128.847C832.433,163.449,830.527,203.962,848.681,238.813C868.403,276.674,902.423,308.463,945.103,309.389" fill="rgba(28, 83, 142, 0.4)" class="triangle-float1"></path><path d="M1006.3867263923161 211.7061407554931L871.8090150760601 242.77585353289533 902.8787278534624 377.3535648491513 1037.4564391697184 346.2838520717491z" fill="rgba(28, 83, 142, 0.4)" class="triangle-float2"></path><path d="M144.96874846458297 89.48016395397154L246.0216156357736 82.41385911493913 184.89572479162968-65.63228922233058z" fill="rgba(28, 83, 142, 0.4)" class="triangle-float1"></path><path d="M987.1236295799122-3.4741849728730543L891.2845628638017-73.1053427864704 821.6534050502044 22.733723929640085 917.4924717663148 92.36488174323742z" fill="rgba(28, 83, 142, 0.4)" class="triangle-float2"></path><path d="M376.788,329.334C399.158,330.683,423.74,326.125,435.401,306.987C447.408,287.28,441.675,262.321,429.602,242.654C418.141,223.985,398.687,212.072,376.788,211.507C353.819,210.915,329.85,219.53,319.034,239.802C308.668,259.231,317.324,282.081,329.261,300.586C340.018,317.262,356.98,328.139,376.788,329.334" fill="rgba(28, 83, 142, 0.4)" class="triangle-float2"></path></g><defs><mask id="SvgjsMask1002"><rect width="1440" height="560" fill="#ffffff"></rect></mask><style>
            @keyframes float1 {
                0%{transform: translate(0, 0)}
                50%{transform: translate(-10px, 0)}
                100%{transform: translate(0, 0)}
            }

            .triangle-float1 {
                animation: float1 5s infinite;
            }

            @keyframes float2 {
                0%{transform: translate(0, 0)}
                50%{transform: translate(-5px, -5px)}
                100%{transform: translate(0, 0)}
            }

            .triangle-float2 {
                animation: float2 4s infinite;
            }

            @keyframes float3 {
                0%{transform: translate(0, 0)}
                50%{transform: translate(0, -10px)}
                100%{transform: translate(0, 0)}
            }

            .triangle-float3 {
                animation: float3 6s infinite;
            }
        </style></defs></svg>