<svg xmlns="http://www.w3.org/2000/svg" version="1.1" xmlns:xlink="http://www.w3.org/1999/xlink" xmlns:svgjs="http://svgjs.com/svgjs" width="1440" height="560" preserveAspectRatio="none" viewBox="0 0 1440 560"><g mask="url(&quot;#SvgjsMask1000&quot;)" fill="none"><rect width="1440" height="560" x="0" y="0" fill="#0e2a47"></rect><path d="M-42.59 405.74L-42.59 405.74" stroke="#132e65" stroke-width="1.5"></path><path d="M-42.59 405.74L-56.96 489.5" stroke="#132e65" stroke-width="1.5"></path><path d="M-42.59 405.74L108.96 361.51" stroke="#132e65" stroke-width="1.5"></path><path d="M-42.59 405.74L-58.5 669.49" stroke="#132e65" stroke-width="1.5"></path><path d="M-42.59 405.74L250.19 365.72" stroke="#132e65" stroke-width="1.5"></path><path d="M-42.59 405.74L254.5 505.84" stroke="#132e65" stroke-width="1.5"></path><path d="M-42.59 405.74L203.16 637.73" stroke="#132e65" stroke-width="1.5"></path><path d="M-56.96 489.5L-56.96 489.5" stroke="#132e65" stroke-width="1.5"></path><path d="M-56.96 489.5L-58.5 669.49" stroke="#132e65" stroke-width="1.5"></path><path d="M-56.96 489.5L108.96 361.51" stroke="#132e65" stroke-width="1.5"></path><path d="M-56.96 489.5L203.16 637.73" stroke="#132e65" stroke-width="1.5"></path><path d="M-56.96 489.5L254.5 505.84" stroke="#132e65" stroke-width="1.5"></path><path d="M-58.5 669.49L-58.5 669.49" stroke="#132e65" stroke-width="1.5"></path><path d="M-58.5 669.49L203.16 637.73" stroke="#132e65" stroke-width="1.5"></path><path d="M-58.5 669.49L108.96 361.51" stroke="#132e65" stroke-width="1.5"></path><path d="M-58.5 669.49L254.5 505.84" stroke="#132e65" stroke-width="1.5"></path><path d="M108.96 361.51L108.96 361.51" stroke="#132e65" stroke-width="1.5"></path><path d="M108.96 361.51L250.19 365.72" stroke="#132e65" stroke-width="1.5"></path><path d="M250.19 365.72L250.19 365.72" stroke="#132e65" stroke-width="1.5"></path><path d="M250.19 365.72L254.5 505.84" stroke="#132e65" stroke-width="1.5"></path><path d="M250.19 365.72L400.26 401.21" stroke="#132e65" stroke-width="1.5"></path><path d="M254.5 505.84L254.5 505.84" stroke="#132e65" stroke-width="1.5"></path><path d="M254.5 505.84L349.65 487.6" stroke="#132e65" stroke-width="1.5"></path><path d="M254.5 505.84L203.16 637.73" stroke="#132e65" stroke-width="1.5"></path><path d="M254.5 505.84L364.38 642.36" stroke="#132e65" stroke-width="1.5"></path><path d="M254.5 505.84L400.26 401.21" stroke="#132e65" stroke-width="1.5"></path><path d="M254.5 505.84L108.96 361.51" stroke="#132e65" stroke-width="1.5"></path><path d="M203.16 637.73L203.16 637.73" stroke="#132e65" stroke-width="1.5"></path><path d="M203.16 637.73L364.38 642.36" stroke="#132e65" stroke-width="1.5"></path><path d="M203.16 637.73L349.65 487.6" stroke="#132e65" stroke-width="1.5"></path><path d="M400.26 401.21L400.26 401.21" stroke="#132e65" stroke-width="1.5"></path><path d="M400.26 401.21L349.65 487.6" stroke="#132e65" stroke-width="1.5"></path><path d="M400.26 401.21L549.13 405.66" stroke="#132e65" stroke-width="1.5"></path><path d="M349.65 487.6L349.65 487.6" stroke="#132e65" stroke-width="1.5"></path><path d="M364.38 642.36L364.38 642.36" stroke="#132e65" stroke-width="1.5"></path><path d="M364.38 642.36L497.87 649.14" stroke="#132e65" stroke-width="1.5"></path><path d="M364.38 642.36L349.65 487.6" stroke="#132e65" stroke-width="1.5"></path><path d="M549.13 405.66L549.13 405.66" stroke="#132e65" stroke-width="1.5"></path><path d="M549.13 405.66L639.15 399.2" stroke="#132e65" stroke-width="1.5"></path><path d="M549.13 405.66L531.72 524.63" stroke="#132e65" stroke-width="1.5"></path><path d="M549.13 405.66L694.67 503.57" stroke="#132e65" stroke-width="1.5"></path><path d="M549.13 405.66L349.65 487.6" stroke="#132e65" stroke-width="1.5"></path><path d="M531.72 524.63L531.72 524.63" stroke="#132e65" stroke-width="1.5"></path><path d="M531.72 524.63L497.87 649.14" stroke="#132e65" stroke-width="1.5"></path><path d="M531.72 524.63L694.67 503.57" stroke="#132e65" stroke-width="1.5"></path><path d="M531.72 524.63L639.15 399.2" stroke="#132e65" stroke-width="1.5"></path><path d="M497.87 649.14L497.87 649.14" stroke="#132e65" stroke-width="1.5"></path><path d="M497.87 649.14L703.87 655.66" stroke="#132e65" stroke-width="1.5"></path><path d="M497.87 649.14L349.65 487.6" stroke="#132e65" stroke-width="1.5"></path><path d="M698.83 214.82L698.83 214.82" stroke="#132e65" stroke-width="1.5"></path><path d="M698.83 214.82L808.1 230.17" stroke="#132e65" stroke-width="1.5"></path><path d="M698.83 214.82L639.15 399.2" stroke="#132e65" stroke-width="1.5"></path><path d="M698.83 214.82L799.05 406.99" stroke="#132e65" stroke-width="1.5"></path><path d="M698.83 214.82L549.13 405.66" stroke="#132e65" stroke-width="1.5"></path><path d="M698.83 214.82L694.67 503.57" stroke="#132e65" stroke-width="1.5"></path><path d="M639.15 399.2L639.15 399.2" stroke="#132e65" stroke-width="1.5"></path><path d="M639.15 399.2L694.67 503.57" stroke="#132e65" stroke-width="1.5"></path><path d="M639.15 399.2L799.05 406.99" stroke="#132e65" stroke-width="1.5"></path><path d="M694.67 503.57L694.67 503.57" stroke="#132e65" stroke-width="1.5"></path><path d="M694.67 503.57L831.42 496.58" stroke="#132e65" stroke-width="1.5"></path><path d="M703.87 655.66L703.87 655.66" stroke="#132e65" stroke-width="1.5"></path><path d="M703.87 655.66L854.04 672.98" stroke="#132e65" stroke-width="1.5"></path><path d="M703.87 655.66L694.67 503.57" stroke="#132e65" stroke-width="1.5"></path><path d="M703.87 655.66L831.42 496.58" stroke="#132e65" stroke-width="1.5"></path><path d="M703.87 655.66L531.72 524.63" stroke="#132e65" stroke-width="1.5"></path><path d="M703.87 655.66L639.15 399.2" stroke="#132e65" stroke-width="1.5"></path><path d="M808.1 230.17L808.1 230.17" stroke="#132e65" stroke-width="1.5"></path><path d="M808.1 230.17L799.05 406.99" stroke="#132e65" stroke-width="1.5"></path><path d="M799.05 406.99L799.05 406.99" stroke="#132e65" stroke-width="1.5"></path><path d="M799.05 406.99L831.42 496.58" stroke="#132e65" stroke-width="1.5"></path><path d="M799.05 406.99L694.67 503.57" stroke="#132e65" stroke-width="1.5"></path><path d="M831.42 496.58L831.42 496.58" stroke="#132e65" stroke-width="1.5"></path><path d="M831.42 496.58L967.3 495.43" stroke="#132e65" stroke-width="1.5"></path><path d="M831.42 496.58L854.04 672.98" stroke="#132e65" stroke-width="1.5"></path><path d="M831.42 496.58L1011.21 407.93" stroke="#132e65" stroke-width="1.5"></path><path d="M854.04 672.98L854.04 672.98" stroke="#132e65" stroke-width="1.5"></path><path d="M854.04 672.98L997.64 711.39" stroke="#132e65" stroke-width="1.5"></path><path d="M854.04 672.98L967.3 495.43" stroke="#132e65" stroke-width="1.5"></path><path d="M949.91 -44.08L949.91 -44.08" stroke="#132e65" stroke-width="1.5"></path><path d="M949.91 -44.08L982.92 55.65" stroke="#132e65" stroke-width="1.5"></path><path d="M949.91 -44.08L1133.95 70.83" stroke="#132e65" stroke-width="1.5"></path><path d="M949.91 -44.08L1160.5 -99.23" stroke="#132e65" stroke-width="1.5"></path><path d="M949.91 -44.08L987.66 237.13" stroke="#132e65" stroke-width="1.5"></path><path d="M949.91 -44.08L808.1 230.17" stroke="#132e65" stroke-width="1.5"></path><path d="M982.92 55.65L982.92 55.65" stroke="#132e65" stroke-width="1.5"></path><path d="M982.92 55.65L1133.95 70.83" stroke="#132e65" stroke-width="1.5"></path><path d="M982.92 55.65L987.66 237.13" stroke="#132e65" stroke-width="1.5"></path><path d="M982.92 55.65L1136.54 205.63" stroke="#132e65" stroke-width="1.5"></path><path d="M982.92 55.65L1160.5 -99.23" stroke="#132e65" stroke-width="1.5"></path><path d="M982.92 55.65L808.1 230.17" stroke="#132e65" stroke-width="1.5"></path><path d="M987.66 237.13L987.66 237.13" stroke="#132e65" stroke-width="1.5"></path><path d="M987.66 237.13L1136.54 205.63" stroke="#132e65" stroke-width="1.5"></path><path d="M987.66 237.13L1011.21 407.93" stroke="#132e65" stroke-width="1.5"></path><path d="M1011.21 407.93L1011.21 407.93" stroke="#132e65" stroke-width="1.5"></path><path d="M1011.21 407.93L1092.65 387.63" stroke="#132e65" stroke-width="1.5"></path><path d="M1011.21 407.93L967.3 495.43" stroke="#132e65" stroke-width="1.5"></path><path d="M1011.21 407.93L1127.12 525.2" stroke="#132e65" stroke-width="1.5"></path><path d="M967.3 495.43L967.3 495.43" stroke="#132e65" stroke-width="1.5"></path><path d="M997.64 711.39L997.64 711.39" stroke="#132e65" stroke-width="1.5"></path><path d="M997.64 711.39L1105.24 685.33" stroke="#132e65" stroke-width="1.5"></path><path d="M997.64 711.39L967.3 495.43" stroke="#132e65" stroke-width="1.5"></path><path d="M1160.5 -99.23L1160.5 -99.23" stroke="#132e65" stroke-width="1.5"></path><path d="M1160.5 -99.23L1305.88 -89.02" stroke="#132e65" stroke-width="1.5"></path><path d="M1133.95 70.83L1133.95 70.83" stroke="#132e65" stroke-width="1.5"></path><path d="M1133.95 70.83L1255.53 53.33" stroke="#132e65" stroke-width="1.5"></path><path d="M1133.95 70.83L1136.54 205.63" stroke="#132e65" stroke-width="1.5"></path><path d="M1133.95 70.83L1160.5 -99.23" stroke="#132e65" stroke-width="1.5"></path><path d="M1133.95 70.83L1286.02 204.39" stroke="#132e65" stroke-width="1.5"></path><path d="M1136.54 205.63L1136.54 205.63" stroke="#132e65" stroke-width="1.5"></path><path d="M1136.54 205.63L1286.02 204.39" stroke="#132e65" stroke-width="1.5"></path><path d="M1136.54 205.63L1092.65 387.63" stroke="#132e65" stroke-width="1.5"></path><path d="M1136.54 205.63L1255.53 53.33" stroke="#132e65" stroke-width="1.5"></path><path d="M1092.65 387.63L1092.65 387.63" stroke="#132e65" stroke-width="1.5"></path><path d="M1092.65 387.63L1127.12 525.2" stroke="#132e65" stroke-width="1.5"></path><path d="M1092.65 387.63L967.3 495.43" stroke="#132e65" stroke-width="1.5"></path><path d="M1092.65 387.63L987.66 237.13" stroke="#132e65" stroke-width="1.5"></path><path d="M1127.12 525.2L1127.12 525.2" stroke="#132e65" stroke-width="1.5"></path><path d="M1127.12 525.2L1246.47 505.54" stroke="#132e65" stroke-width="1.5"></path><path d="M1127.12 525.2L1105.24 685.33" stroke="#132e65" stroke-width="1.5"></path><path d="M1127.12 525.2L967.3 495.43" stroke="#132e65" stroke-width="1.5"></path><path d="M1127.12 525.2L997.64 711.39" stroke="#132e65" stroke-width="1.5"></path><path d="M1105.24 685.33L1105.24 685.33" stroke="#132e65" stroke-width="1.5"></path><path d="M1305.88 -89.02L1305.88 -89.02" stroke="#132e65" stroke-width="1.5"></path><path d="M1305.88 -89.02L1413.39 -80.97" stroke="#132e65" stroke-width="1.5"></path><path d="M1305.88 -89.02L1255.53 53.33" stroke="#132e65" stroke-width="1.5"></path><path d="M1305.88 -89.02L1411.58 90.81" stroke="#132e65" stroke-width="1.5"></path><path d="M1305.88 -89.02L1133.95 70.83" stroke="#132e65" stroke-width="1.5"></path><path d="M1255.53 53.33L1255.53 53.33" stroke="#132e65" stroke-width="1.5"></path><path d="M1255.53 53.33L1286.02 204.39" stroke="#132e65" stroke-width="1.5"></path><path d="M1286.02 204.39L1286.02 204.39" stroke="#132e65" stroke-width="1.5"></path><path d="M1286.02 204.39L1411.58 90.81" stroke="#132e65" stroke-width="1.5"></path><path d="M1246.47 505.54L1246.47 505.54" stroke="#132e65" stroke-width="1.5"></path><path d="M1246.47 505.54L1406.72 488.04" stroke="#132e65" stroke-width="1.5"></path><path d="M1246.47 505.54L1309.9 663.53" stroke="#132e65" stroke-width="1.5"></path><path d="M1309.9 663.53L1309.9 663.53" stroke="#132e65" stroke-width="1.5"></path><path d="M1309.9 663.53L1397.05 676.63" stroke="#132e65" stroke-width="1.5"></path><path d="M1309.9 663.53L1406.72 488.04" stroke="#132e65" stroke-width="1.5"></path><path d="M1309.9 663.53L1105.24 685.33" stroke="#132e65" stroke-width="1.5"></path><path d="M1309.9 663.53L1127.12 525.2" stroke="#132e65" stroke-width="1.5"></path><path d="M1413.39 -80.97L1413.39 -80.97" stroke="#132e65" stroke-width="1.5"></path><path d="M1413.39 -80.97L1540.52 -100.64" stroke="#132e65" stroke-width="1.5"></path><path d="M1413.39 -80.97L1411.58 90.81" stroke="#132e65" stroke-width="1.5"></path><path d="M1413.39 -80.97L1255.53 53.33" stroke="#132e65" stroke-width="1.5"></path><path d="M1411.58 90.81L1411.58 90.81" stroke="#132e65" stroke-width="1.5"></path><path d="M1411.58 90.81L1255.53 53.33" stroke="#132e65" stroke-width="1.5"></path><path d="M1426.01 353.1L1426.01 353.1" stroke="#132e65" stroke-width="1.5"></path><path d="M1426.01 353.1L1406.72 488.04" stroke="#132e65" stroke-width="1.5"></path><path d="M1426.01 353.1L1557.95 392.06" stroke="#132e65" stroke-width="1.5"></path><path d="M1406.72 488.04L1406.72 488.04" stroke="#132e65" stroke-width="1.5"></path><path d="M1406.72 488.04L1572.74 511.21" stroke="#132e65" stroke-width="1.5"></path><path d="M1406.72 488.04L1557.95 392.06" stroke="#132e65" stroke-width="1.5"></path><path d="M1406.72 488.04L1397.05 676.63" stroke="#132e65" stroke-width="1.5"></path><path d="M1397.05 676.63L1397.05 676.63" stroke="#132e65" stroke-width="1.5"></path><path d="M1397.05 676.63L1246.47 505.54" stroke="#132e65" stroke-width="1.5"></path><path d="M1397.05 676.63L1572.74 511.21" stroke="#132e65" stroke-width="1.5"></path><path d="M1540.52 -100.64L1540.52 -100.64" stroke="#132e65" stroke-width="1.5"></path><path d="M1540.52 -100.64L1411.58 90.81" stroke="#132e65" stroke-width="1.5"></path><path d="M1540.52 -100.64L1305.88 -89.02" stroke="#132e65" stroke-width="1.5"></path><path d="M1540.52 -100.64L1255.53 53.33" stroke="#132e65" stroke-width="1.5"></path><path d="M1540.52 -100.64L1550.48 236.11" stroke="#132e65" stroke-width="1.5"></path><path d="M1550.48 236.11L1550.48 236.11" stroke="#132e65" stroke-width="1.5"></path><path d="M1550.48 236.11L1557.95 392.06" stroke="#132e65" stroke-width="1.5"></path><path d="M1550.48 236.11L1426.01 353.1" stroke="#132e65" stroke-width="1.5"></path><path d="M1557.95 392.06L1557.95 392.06" stroke="#132e65" stroke-width="1.5"></path><path d="M1557.95 392.06L1572.74 511.21" stroke="#132e65" stroke-width="1.5"></path><path d="M1572.74 511.21L1572.74 511.21" stroke="#132e65" stroke-width="1.5"></path><circle r="5" cx="-42.59" cy="405.74" fill="#132e65"></circle><circle r="5" cx="-56.96" cy="489.5" fill="#132e65"></circle><circle r="5" cx="-58.5" cy="669.49" fill="#132e65"></circle><circle r="5" cx="108.96" cy="361.51" fill="#132e65"></circle><circle r="5" cx="250.19" cy="365.72" fill="#132e65"></circle><circle r="5" cx="254.5" cy="505.84" fill="#132e65"></circle><circle r="5" cx="203.16" cy="637.73" fill="#132e65"></circle><circle r="5" cx="400.26" cy="401.21" fill="#132e65"></circle><circle r="5" cx="349.65" cy="487.6" fill="#132e65"></circle><circle r="5" cx="364.38" cy="642.36" fill="#132e65"></circle><circle r="5" cx="549.13" cy="405.66" fill="#132e65"></circle><circle r="5" cx="531.72" cy="524.63" fill="#132e65"></circle><circle r="5" cx="497.87" cy="649.14" fill="#132e65"></circle><circle r="5" cx="698.83" cy="214.82" fill="#132e65"></circle><circle r="5" cx="639.15" cy="399.2" fill="#132e65"></circle><circle r="5" cx="694.67" cy="503.57" fill="#132e65"></circle><circle r="5" cx="703.87" cy="655.66" fill="#132e65"></circle><circle r="5" cx="808.1" cy="230.17" fill="#132e65"></circle><circle r="5" cx="799.05" cy="406.99" fill="#132e65"></circle><circle r="5" cx="831.42" cy="496.58" fill="#132e65"></circle><circle r="5" cx="854.04" cy="672.98" fill="#132e65"></circle><circle r="5" cx="949.91" cy="-44.08" fill="#132e65"></circle><circle r="5" cx="982.92" cy="55.65" fill="#132e65"></circle><circle r="5" cx="987.66" cy="237.13" fill="#132e65"></circle><circle r="5" cx="1011.21" cy="407.93" fill="#132e65"></circle><circle r="5" cx="967.3" cy="495.43" fill="#132e65"></circle><circle r="5" cx="997.64" cy="711.39" fill="#132e65"></circle><circle r="5" cx="1160.5" cy="-99.23" fill="#132e65"></circle><circle r="5" cx="1133.95" cy="70.83" fill="#132e65"></circle><circle r="5" cx="1136.54" cy="205.63" fill="#132e65"></circle><circle r="5" cx="1092.65" cy="387.63" fill="#132e65"></circle><circle r="5" cx="1127.12" cy="525.2" fill="#132e65"></circle><circle r="5" cx="1105.24" cy="685.33" fill="#132e65"></circle><circle r="5" cx="1305.88" cy="-89.02" fill="#132e65"></circle><circle r="5" cx="1255.53" cy="53.33" fill="#132e65"></circle><circle r="5" cx="1286.02" cy="204.39" fill="#132e65"></circle><circle r="5" cx="1246.47" cy="505.54" fill="#132e65"></circle><circle r="5" cx="1309.9" cy="663.53" fill="#132e65"></circle><circle r="5" cx="1413.39" cy="-80.97" fill="#132e65"></circle><circle r="5" cx="1411.58" cy="90.81" fill="#132e65"></circle><circle r="5" cx="1426.01" cy="353.1" fill="#132e65"></circle><circle r="5" cx="1406.72" cy="488.04" fill="#132e65"></circle><circle r="5" cx="1397.05" cy="676.63" fill="#132e65"></circle><circle r="5" cx="1540.52" cy="-100.64" fill="#132e65"></circle><circle r="5" cx="1550.48" cy="236.11" fill="#132e65"></circle><circle r="5" cx="1557.95" cy="392.06" fill="#132e65"></circle><circle r="5" cx="1572.74" cy="511.21" fill="#132e65"></circle><path d="M-95.56 499.54L-95.56 499.54" stroke="hsl(228.5, 77.2%, 51.5%)" stroke-width="1.5"></path><path d="M-95.56 499.54L55.35 513.25" stroke="hsl(228.5, 77.2%, 51.5%)" stroke-width="1.5"></path><path d="M-95.56 499.54L-54.12 651.2" stroke="hsl(228.5, 77.2%, 51.5%)" stroke-width="1.5"></path><path d="M-54.12 651.2L-54.12 651.2" stroke="hsl(228.5, 77.2%, 51.5%)" stroke-width="1.5"></path><path d="M-54.12 651.2L80.99 645.91" stroke="hsl(228.5, 77.2%, 51.5%)" stroke-width="1.5"></path><path d="M-54.12 651.2L55.35 513.25" stroke="hsl(228.5, 77.2%, 51.5%)" stroke-width="1.5"></path><path d="M242.26 703.19L242.26 703.19" stroke="hsl(228.5, 77.2%, 51.5%)" stroke-width="1.5"></path><path d="M242.26 703.19L361.71 650.27" stroke="hsl(228.5, 77.2%, 51.5%)" stroke-width="1.5"></path><path d="M242.26 703.19L80.99 645.91" stroke="hsl(228.5, 77.2%, 51.5%)" stroke-width="1.5"></path><path d="M242.26 703.19L246.65 524.86" stroke="hsl(228.5, 77.2%, 51.5%)" stroke-width="1.5"></path><path d="M242.26 703.19L379.87 512.23" stroke="hsl(228.5, 77.2%, 51.5%)" stroke-width="1.5"></path><path d="M523.11 654.03L523.11 654.03" stroke="hsl(228.5, 77.2%, 51.5%)" stroke-width="1.5"></path><path d="M523.11 654.03L643.26 662.84" stroke="hsl(228.5, 77.2%, 51.5%)" stroke-width="1.5"></path><path d="M523.11 654.03L560.76 538.22" stroke="hsl(228.5, 77.2%, 51.5%)" stroke-width="1.5"></path><path d="M523.11 654.03L361.71 650.27" stroke="hsl(228.5, 77.2%, 51.5%)" stroke-width="1.5"></path><path d="M523.11 654.03L379.87 512.23" stroke="hsl(228.5, 77.2%, 51.5%)" stroke-width="1.5"></path><path d="M802.95 546.55L802.95 546.55" stroke="hsl(228.5, 77.2%, 51.5%)" stroke-width="1.5"></path><path d="M802.95 546.55L691.55 506.1" stroke="hsl(228.5, 77.2%, 51.5%)" stroke-width="1.5"></path><path d="M802.95 546.55L841.04 410.68" stroke="hsl(228.5, 77.2%, 51.5%)" stroke-width="1.5"></path><path d="M802.95 546.55L843.13 685.52" stroke="hsl(228.5, 77.2%, 51.5%)" stroke-width="1.5"></path><path d="M802.95 546.55L971.53 548.28" stroke="hsl(228.5, 77.2%, 51.5%)" stroke-width="1.5"></path><path d="M1011.77 654.45L1011.77 654.45" stroke="hsl(228.5, 77.2%, 51.5%)" stroke-width="1.5"></path><path d="M1011.77 654.45L971.53 548.28" stroke="hsl(228.5, 77.2%, 51.5%)" stroke-width="1.5"></path><path d="M1011.77 654.45L1146.96 642.7" stroke="hsl(228.5, 77.2%, 51.5%)" stroke-width="1.5"></path><path d="M1011.77 654.45L843.13 685.52" stroke="hsl(228.5, 77.2%, 51.5%)" stroke-width="1.5"></path><path d="M1011.77 654.45L1155.87 555.92" stroke="hsl(228.5, 77.2%, 51.5%)" stroke-width="1.5"></path><path d="M1011.77 654.45L802.95 546.55" stroke="hsl(228.5, 77.2%, 51.5%)" stroke-width="1.5"></path><path d="M1011.77 654.45L1275.44 648.19" stroke="hsl(228.5, 77.2%, 51.5%)" stroke-width="1.5"></path><path d="M55.35 513.25L55.35 513.25" stroke="hsl(228.5, 77.2%, 51.5%)" stroke-width="1.5"></path><path d="M55.35 513.25L80.99 645.91" stroke="hsl(228.5, 77.2%, 51.5%)" stroke-width="1.5"></path><path d="M80.99 645.91L80.99 645.91" stroke="hsl(228.5, 77.2%, 51.5%)" stroke-width="1.5"></path><path d="M246.65 524.86L246.65 524.86" stroke="hsl(228.5, 77.2%, 51.5%)" stroke-width="1.5"></path><path d="M246.65 524.86L379.87 512.23" stroke="hsl(228.5, 77.2%, 51.5%)" stroke-width="1.5"></path><path d="M246.65 524.86L361.71 650.27" stroke="hsl(228.5, 77.2%, 51.5%)" stroke-width="1.5"></path><path d="M246.65 524.86L55.35 513.25" stroke="hsl(228.5, 77.2%, 51.5%)" stroke-width="1.5"></path><path d="M246.65 524.86L80.99 645.91" stroke="hsl(228.5, 77.2%, 51.5%)" stroke-width="1.5"></path><path d="M246.65 524.86L523.11 654.03" stroke="hsl(228.5, 77.2%, 51.5%)" stroke-width="1.5"></path><path d="M379.87 512.23L379.87 512.23" stroke="hsl(228.5, 77.2%, 51.5%)" stroke-width="1.5"></path><path d="M379.87 512.23L361.71 650.27" stroke="hsl(228.5, 77.2%, 51.5%)" stroke-width="1.5"></path><path d="M379.87 512.23L560.76 538.22" stroke="hsl(228.5, 77.2%, 51.5%)" stroke-width="1.5"></path><path d="M379.87 512.23L643.26 662.84" stroke="hsl(228.5, 77.2%, 51.5%)" stroke-width="1.5"></path><path d="M361.71 650.27L361.71 650.27" stroke="hsl(228.5, 77.2%, 51.5%)" stroke-width="1.5"></path><path d="M560.76 538.22L560.76 538.22" stroke="hsl(228.5, 77.2%, 51.5%)" stroke-width="1.5"></path><path d="M689.28 396.53L689.28 396.53" stroke="hsl(228.5, 77.2%, 51.5%)" stroke-width="1.5"></path><path d="M689.28 396.53L691.55 506.1" stroke="hsl(228.5, 77.2%, 51.5%)" stroke-width="1.5"></path><path d="M691.55 506.1L691.55 506.1" stroke="hsl(228.5, 77.2%, 51.5%)" stroke-width="1.5"></path><path d="M691.55 506.1L560.76 538.22" stroke="hsl(228.5, 77.2%, 51.5%)" stroke-width="1.5"></path><path d="M691.55 506.1L643.26 662.84" stroke="hsl(228.5, 77.2%, 51.5%)" stroke-width="1.5"></path><path d="M643.26 662.84L643.26 662.84" stroke="hsl(228.5, 77.2%, 51.5%)" stroke-width="1.5"></path><path d="M643.26 662.84L560.76 538.22" stroke="hsl(228.5, 77.2%, 51.5%)" stroke-width="1.5"></path><path d="M841.04 410.68L841.04 410.68" stroke="hsl(228.5, 77.2%, 51.5%)" stroke-width="1.5"></path><path d="M841.04 410.68L988.99 387.24" stroke="hsl(228.5, 77.2%, 51.5%)" stroke-width="1.5"></path><path d="M841.04 410.68L689.28 396.53" stroke="hsl(228.5, 77.2%, 51.5%)" stroke-width="1.5"></path><path d="M841.04 410.68L691.55 506.1" stroke="hsl(228.5, 77.2%, 51.5%)" stroke-width="1.5"></path><path d="M843.13 685.52L843.13 685.52" stroke="hsl(228.5, 77.2%, 51.5%)" stroke-width="1.5"></path><path d="M843.13 685.52L971.53 548.28" stroke="hsl(228.5, 77.2%, 51.5%)" stroke-width="1.5"></path><path d="M988.99 387.24L988.99 387.24" stroke="hsl(228.5, 77.2%, 51.5%)" stroke-width="1.5"></path><path d="M988.99 387.24L1130.24 388.22" stroke="hsl(228.5, 77.2%, 51.5%)" stroke-width="1.5"></path><path d="M988.99 387.24L971.53 548.28" stroke="hsl(228.5, 77.2%, 51.5%)" stroke-width="1.5"></path><path d="M988.99 387.24L1100.1 222.4" stroke="hsl(228.5, 77.2%, 51.5%)" stroke-width="1.5"></path><path d="M971.53 548.28L971.53 548.28" stroke="hsl(228.5, 77.2%, 51.5%)" stroke-width="1.5"></path><path d="M971.53 548.28L1155.87 555.92" stroke="hsl(228.5, 77.2%, 51.5%)" stroke-width="1.5"></path><path d="M971.53 548.28L841.04 410.68" stroke="hsl(228.5, 77.2%, 51.5%)" stroke-width="1.5"></path><path d="M1134.88 85.95L1134.88 85.95" stroke="hsl(228.5, 77.2%, 51.5%)" stroke-width="1.5"></path><path d="M1134.88 85.95L1100.1 222.4" stroke="hsl(228.5, 77.2%, 51.5%)" stroke-width="1.5"></path><path d="M1134.88 85.95L1277.96 89.99" stroke="hsl(228.5, 77.2%, 51.5%)" stroke-width="1.5"></path><path d="M1134.88 85.95L1239.92 -55.48" stroke="hsl(228.5, 77.2%, 51.5%)" stroke-width="1.5"></path><path d="M1100.1 222.4L1100.1 222.4" stroke="hsl(228.5, 77.2%, 51.5%)" stroke-width="1.5"></path><path d="M1100.1 222.4L1130.24 388.22" stroke="hsl(228.5, 77.2%, 51.5%)" stroke-width="1.5"></path><path d="M1100.1 222.4L1297.68 203.13" stroke="hsl(228.5, 77.2%, 51.5%)" stroke-width="1.5"></path><path d="M1100.1 222.4L1277.96 89.99" stroke="hsl(228.5, 77.2%, 51.5%)" stroke-width="1.5"></path><path d="M1130.24 388.22L1130.24 388.22" stroke="hsl(228.5, 77.2%, 51.5%)" stroke-width="1.5"></path><path d="M1130.24 388.22L1155.87 555.92" stroke="hsl(228.5, 77.2%, 51.5%)" stroke-width="1.5"></path><path d="M1155.87 555.92L1155.87 555.92" stroke="hsl(228.5, 77.2%, 51.5%)" stroke-width="1.5"></path><path d="M1155.87 555.92L1146.96 642.7" stroke="hsl(228.5, 77.2%, 51.5%)" stroke-width="1.5"></path><path d="M1155.87 555.92L1279.65 544.02" stroke="hsl(228.5, 77.2%, 51.5%)" stroke-width="1.5"></path><path d="M1155.87 555.92L1275.44 648.19" stroke="hsl(228.5, 77.2%, 51.5%)" stroke-width="1.5"></path><path d="M1146.96 642.7L1146.96 642.7" stroke="hsl(228.5, 77.2%, 51.5%)" stroke-width="1.5"></path><path d="M1146.96 642.7L1275.44 648.19" stroke="hsl(228.5, 77.2%, 51.5%)" stroke-width="1.5"></path><path d="M1239.92 -55.48L1239.92 -55.48" stroke="hsl(228.5, 77.2%, 51.5%)" stroke-width="1.5"></path><path d="M1239.92 -55.48L1277.96 89.99" stroke="hsl(228.5, 77.2%, 51.5%)" stroke-width="1.5"></path><path d="M1239.92 -55.48L1406.94 -42.76" stroke="hsl(228.5, 77.2%, 51.5%)" stroke-width="1.5"></path><path d="M1277.96 89.99L1277.96 89.99" stroke="hsl(228.5, 77.2%, 51.5%)" stroke-width="1.5"></path><path d="M1277.96 89.99L1297.68 203.13" stroke="hsl(228.5, 77.2%, 51.5%)" stroke-width="1.5"></path><path d="M1277.96 89.99L1396.05 52.15" stroke="hsl(228.5, 77.2%, 51.5%)" stroke-width="1.5"></path><path d="M1297.68 203.13L1297.68 203.13" stroke="hsl(228.5, 77.2%, 51.5%)" stroke-width="1.5"></path><path d="M1297.68 203.13L1448.23 197.47" stroke="hsl(228.5, 77.2%, 51.5%)" stroke-width="1.5"></path><path d="M1302.88 395.72L1302.88 395.72" stroke="hsl(228.5, 77.2%, 51.5%)" stroke-width="1.5"></path><path d="M1302.88 395.72L1394.37 401.8" stroke="hsl(228.5, 77.2%, 51.5%)" stroke-width="1.5"></path><path d="M1302.88 395.72L1279.65 544.02" stroke="hsl(228.5, 77.2%, 51.5%)" stroke-width="1.5"></path><path d="M1302.88 395.72L1130.24 388.22" stroke="hsl(228.5, 77.2%, 51.5%)" stroke-width="1.5"></path><path d="M1279.65 544.02L1279.65 544.02" stroke="hsl(228.5, 77.2%, 51.5%)" stroke-width="1.5"></path><path d="M1279.65 544.02L1275.44 648.19" stroke="hsl(228.5, 77.2%, 51.5%)" stroke-width="1.5"></path><path d="M1279.65 544.02L1146.96 642.7" stroke="hsl(228.5, 77.2%, 51.5%)" stroke-width="1.5"></path><path d="M1279.65 544.02L1394.37 401.8" stroke="hsl(228.5, 77.2%, 51.5%)" stroke-width="1.5"></path><path d="M1279.65 544.02L1130.24 388.22" stroke="hsl(228.5, 77.2%, 51.5%)" stroke-width="1.5"></path><path d="M1275.44 648.19L1275.44 648.19" stroke="hsl(228.5, 77.2%, 51.5%)" stroke-width="1.5"></path><path d="M1275.44 648.19L1444.85 685.41" stroke="hsl(228.5, 77.2%, 51.5%)" stroke-width="1.5"></path><path d="M1406.94 -42.76L1406.94 -42.76" stroke="hsl(228.5, 77.2%, 51.5%)" stroke-width="1.5"></path><path d="M1406.94 -42.76L1396.05 52.15" stroke="hsl(228.5, 77.2%, 51.5%)" stroke-width="1.5"></path><path d="M1396.05 52.15L1396.05 52.15" stroke="hsl(228.5, 77.2%, 51.5%)" stroke-width="1.5"></path><path d="M1396.05 52.15L1541.09 103.28" stroke="hsl(228.5, 77.2%, 51.5%)" stroke-width="1.5"></path><path d="M1396.05 52.15L1448.23 197.47" stroke="hsl(228.5, 77.2%, 51.5%)" stroke-width="1.5"></path><path d="M1396.05 52.15L1297.68 203.13" stroke="hsl(228.5, 77.2%, 51.5%)" stroke-width="1.5"></path><path d="M1448.23 197.47L1448.23 197.47" stroke="hsl(228.5, 77.2%, 51.5%)" stroke-width="1.5"></path><path d="M1448.23 197.47L1541.09 103.28" stroke="hsl(228.5, 77.2%, 51.5%)" stroke-width="1.5"></path><path d="M1448.23 197.47L1585.51 248.06" stroke="hsl(228.5, 77.2%, 51.5%)" stroke-width="1.5"></path><path d="M1394.37 401.8L1394.37 401.8" stroke="hsl(228.5, 77.2%, 51.5%)" stroke-width="1.5"></path><path d="M1394.37 401.8L1554.88 404.29" stroke="hsl(228.5, 77.2%, 51.5%)" stroke-width="1.5"></path><path d="M1394.37 401.8L1448.23 197.47" stroke="hsl(228.5, 77.2%, 51.5%)" stroke-width="1.5"></path><path d="M1394.37 401.8L1583.62 510.48" stroke="hsl(228.5, 77.2%, 51.5%)" stroke-width="1.5"></path><path d="M1394.37 401.8L1297.68 203.13" stroke="hsl(228.5, 77.2%, 51.5%)" stroke-width="1.5"></path><path d="M1444.85 685.41L1444.85 685.41" stroke="hsl(228.5, 77.2%, 51.5%)" stroke-width="1.5"></path><path d="M1444.85 685.41L1608.18 684.99" stroke="hsl(228.5, 77.2%, 51.5%)" stroke-width="1.5"></path><path d="M1444.85 685.41L1279.65 544.02" stroke="hsl(228.5, 77.2%, 51.5%)" stroke-width="1.5"></path><path d="M1444.85 685.41L1583.62 510.48" stroke="hsl(228.5, 77.2%, 51.5%)" stroke-width="1.5"></path><path d="M1566.24 -60.32L1566.24 -60.32" stroke="hsl(228.5, 77.2%, 51.5%)" stroke-width="1.5"></path><path d="M1566.24 -60.32L1406.94 -42.76" stroke="hsl(228.5, 77.2%, 51.5%)" stroke-width="1.5"></path><path d="M1566.24 -60.32L1541.09 103.28" stroke="hsl(228.5, 77.2%, 51.5%)" stroke-width="1.5"></path><path d="M1566.24 -60.32L1396.05 52.15" stroke="hsl(228.5, 77.2%, 51.5%)" stroke-width="1.5"></path><path d="M1566.24 -60.32L1448.23 197.47" stroke="hsl(228.5, 77.2%, 51.5%)" stroke-width="1.5"></path><path d="M1566.24 -60.32L1585.51 248.06" stroke="hsl(228.5, 77.2%, 51.5%)" stroke-width="1.5"></path><path d="M1566.24 -60.32L1277.96 89.99" stroke="hsl(228.5, 77.2%, 51.5%)" stroke-width="1.5"></path><path d="M1541.09 103.28L1541.09 103.28" stroke="hsl(228.5, 77.2%, 51.5%)" stroke-width="1.5"></path><path d="M1541.09 103.28L1585.51 248.06" stroke="hsl(228.5, 77.2%, 51.5%)" stroke-width="1.5"></path><path d="M1541.09 103.28L1406.94 -42.76" stroke="hsl(228.5, 77.2%, 51.5%)" stroke-width="1.5"></path><path d="M1585.51 248.06L1585.51 248.06" stroke="hsl(228.5, 77.2%, 51.5%)" stroke-width="1.5"></path><path d="M1585.51 248.06L1554.88 404.29" stroke="hsl(228.5, 77.2%, 51.5%)" stroke-width="1.5"></path><path d="M1585.51 248.06L1394.37 401.8" stroke="hsl(228.5, 77.2%, 51.5%)" stroke-width="1.5"></path><path d="M1585.51 248.06L1583.62 510.48" stroke="hsl(228.5, 77.2%, 51.5%)" stroke-width="1.5"></path><path d="M1585.51 248.06L1396.05 52.15" stroke="hsl(228.5, 77.2%, 51.5%)" stroke-width="1.5"></path><path d="M1554.88 404.29L1554.88 404.29" stroke="hsl(228.5, 77.2%, 51.5%)" stroke-width="1.5"></path><path d="M1554.88 404.29L1583.62 510.48" stroke="hsl(228.5, 77.2%, 51.5%)" stroke-width="1.5"></path><path d="M1583.62 510.48L1583.62 510.48" stroke="hsl(228.5, 77.2%, 51.5%)" stroke-width="1.5"></path><path d="M1583.62 510.48L1608.18 684.99" stroke="hsl(228.5, 77.2%, 51.5%)" stroke-width="1.5"></path><path d="M1608.18 684.99L1608.18 684.99" stroke="hsl(228.5, 77.2%, 51.5%)" stroke-width="1.5"></path><path d="M1608.18 684.99L1554.88 404.29" stroke="hsl(228.5, 77.2%, 51.5%)" stroke-width="1.5"></path><path d="M1608.18 684.99L1275.44 648.19" stroke="hsl(228.5, 77.2%, 51.5%)" stroke-width="1.5"></path><path d="M1608.18 684.99L1394.37 401.8" stroke="hsl(228.5, 77.2%, 51.5%)" stroke-width="1.5"></path><path d="M1608.18 684.99L1279.65 544.02" stroke="hsl(228.5, 77.2%, 51.5%)" stroke-width="1.5"></path><circle r="25" cx="-95.56" cy="499.54" fill="url(#SvgjsRadialGradient1001)"></circle><circle r="25" cx="-54.12" cy="651.2" fill="url(#SvgjsRadialGradient1001)"></circle><circle r="25" cx="242.26" cy="703.19" fill="url(#SvgjsRadialGradient1001)"></circle><circle r="25" cx="523.11" cy="654.03" fill="url(#SvgjsRadialGradient1001)"></circle><circle r="25" cx="802.95" cy="546.55" fill="url(#SvgjsRadialGradient1001)"></circle><circle r="25" cx="1011.77" cy="654.45" fill="url(#SvgjsRadialGradient1001)"></circle><circle r="5" cx="55.35" cy="513.25" fill="#8b9ad9"></circle><circle r="5" cx="80.99" cy="645.91" fill="#8b9ad9"></circle><circle r="5" cx="246.65" cy="524.86" fill="#8b9ad9"></circle><circle r="5" cx="379.87" cy="512.23" fill="#8b9ad9"></circle><circle r="5" cx="361.71" cy="650.27" fill="#8b9ad9"></circle><circle r="5" cx="560.76" cy="538.22" fill="#8b9ad9"></circle><circle r="5" cx="689.28" cy="396.53" fill="#8b9ad9"></circle><circle r="5" cx="691.55" cy="506.1" fill="#8b9ad9"></circle><circle r="5" cx="643.26" cy="662.84" fill="#8b9ad9"></circle><circle r="5" cx="841.04" cy="410.68" fill="#8b9ad9"></circle><circle r="5" cx="843.13" cy="685.52" fill="#8b9ad9"></circle><circle r="5" cx="988.99" cy="387.24" fill="#8b9ad9"></circle><circle r="5" cx="971.53" cy="548.28" fill="#8b9ad9"></circle><circle r="5" cx="1134.88" cy="85.95" fill="#8b9ad9"></circle><circle r="5" cx="1100.1" cy="222.4" fill="#8b9ad9"></circle><circle r="5" cx="1130.24" cy="388.22" fill="#8b9ad9"></circle><circle r="5" cx="1155.87" cy="555.92" fill="#8b9ad9"></circle><circle r="5" cx="1146.96" cy="642.7" fill="#8b9ad9"></circle><circle r="5" cx="1239.92" cy="-55.48" fill="#8b9ad9"></circle><circle r="5" cx="1277.96" cy="89.99" fill="#8b9ad9"></circle><circle r="5" cx="1297.68" cy="203.13" fill="#8b9ad9"></circle><circle r="5" cx="1302.88" cy="395.72" fill="#8b9ad9"></circle><circle r="5" cx="1279.65" cy="544.02" fill="#8b9ad9"></circle><circle r="5" cx="1275.44" cy="648.19" fill="#8b9ad9"></circle><circle r="5" cx="1406.94" cy="-42.76" fill="#8b9ad9"></circle><circle r="5" cx="1396.05" cy="52.15" fill="#8b9ad9"></circle><circle r="5" cx="1448.23" cy="197.47" fill="#8b9ad9"></circle><circle r="5" cx="1394.37" cy="401.8" fill="#8b9ad9"></circle><circle r="5" cx="1444.85" cy="685.41" fill="#8b9ad9"></circle><circle r="5" cx="1566.24" cy="-60.32" fill="#8b9ad9"></circle><circle r="5" cx="1541.09" cy="103.28" fill="#8b9ad9"></circle><circle r="5" cx="1585.51" cy="248.06" fill="#8b9ad9"></circle><circle r="5" cx="1554.88" cy="404.29" fill="#8b9ad9"></circle><circle r="5" cx="1583.62" cy="510.48" fill="#8b9ad9"></circle><circle r="5" cx="1608.18" cy="684.99" fill="#8b9ad9"></circle></g><defs><mask id="SvgjsMask1000"><rect width="1440" height="560" fill="#ffffff"></rect></mask><radialGradient id="SvgjsRadialGradient1001"><stop stop-color="#ffffff" offset="0.1"></stop><stop stop-color="#1735b3" offset="0.2"></stop><stop stop-color="rgba(23, 53, 179, 0)" offset="1"></stop></radialGradient></defs></svg>