<svg xmlns="http://www.w3.org/2000/svg" version="1.1" xmlns:xlink="http://www.w3.org/1999/xlink" xmlns:svgjs="http://svgjs.com/svgjs" width="1440" height="560" preserveAspectRatio="none" viewBox="0 0 1440 560"><g mask="url(&quot;#SvgjsMask1003&quot;)" fill="none"><rect width="1440" height="560" x="0" y="0" fill="rgba(56, 6, 83, 1)"></rect><path d="M177.563,296.262C203.309,296.391,224.553,278.117,237.074,255.621C249.218,233.801,251.149,207.607,239.068,185.752C226.591,163.181,203.352,147.769,177.563,147.959C152.072,148.147,129.83,164.276,117.609,186.648C105.894,208.094,107.348,233.591,119.074,255.031C131.342,277.461,151.997,296.134,177.563,296.262" fill="rgba(122, 3, 163, 0.4)" class="triangle-float2"></path><path d="M1151.832,367.133C1201.864,365.789,1240.204,329.576,1266.919,287.252C1296.164,240.921,1323.069,185.179,1297.156,136.905C1270.321,86.915,1208.542,71.124,1151.832,72.86C1098.465,74.494,1047.653,99.008,1021.147,145.356C994.818,191.394,998.586,248.047,1025.511,293.739C1052.009,338.707,1099.656,368.535,1151.832,367.133" fill="rgba(122, 3, 163, 0.4)" class="triangle-float2"></path><path d="M395.63656084659874 264.85828915536933L516.6988975743319 155.8532715535714 286.6315432448008 143.79595242763617z" fill="rgba(122, 3, 163, 0.4)" class="triangle-float2"></path><path d="M516.1131779682373 111.16865306666087L548.5091707251895-1.809599996499628 403.13492490507684 78.77266030970871z" fill="rgba(122, 3, 163, 0.4)" class="triangle-float1"></path><path d="M15.19730437908931 423.0429312988385L75.12013198534162 419.90250897563425 40.448084697409115 331.58847872785793z" fill="rgba(122, 3, 163, 0.4)" class="triangle-float1"></path><path d="M390.0525081578609 106.66146692489349L487.0147711301665 177.10867458591292 460.49971581888036 9.699203952587922z" fill="rgba(122, 3, 163, 0.4)" class="triangle-float2"></path><path d="M326.555,225.353C346.258,224.584,361.991,209.952,370.741,192.282C378.525,176.564,376.439,158.212,367.18,143.315C358.455,129.277,343.064,121.972,326.555,121.186C308.297,120.317,288.871,123.96,278.63,139.101C267.232,155.951,266.083,178.197,275.963,195.979C286.114,214.248,305.671,226.168,326.555,225.353" fill="rgba(122, 3, 163, 0.4)" class="triangle-float2"></path><path d="M1150.4457396279226 114.80540570332687L1264.4997431879162 217.5000917771053 1367.1944292616947 103.44608821711162 1253.1404257017011 0.7514021433331806z" fill="rgba(122, 3, 163, 0.4)" class="triangle-float3"></path><path d="M481.679,570.128C520.667,569.593,541.761,528.454,559.747,493.858C575.875,462.837,587.11,428.186,571.82,396.743C554.6,361.331,521.025,334.891,481.679,333.318C439.708,331.64,397.006,351.477,378.129,389.001C360.592,423.86,380.446,462.174,399.813,496.051C419.39,530.294,442.239,570.669,481.679,570.128" fill="rgba(122, 3, 163, 0.4)" class="triangle-float2"></path><path d="M90.98485791440669 166.9327398609047L90.98485791440667 59.80317406017892-69.70949078668195 113.36795696054182z" fill="rgba(122, 3, 163, 0.4)" class="triangle-float2"></path></g><defs><mask id="SvgjsMask1003"><rect width="1440" height="560" fill="#ffffff"></rect></mask><style>
            @keyframes float1 {
                0%{transform: translate(0, 0)}
                50%{transform: translate(-10px, 0)}
                100%{transform: translate(0, 0)}
            }

            .triangle-float1 {
                animation: float1 5s infinite;
            }

            @keyframes float2 {
                0%{transform: translate(0, 0)}
                50%{transform: translate(-5px, -5px)}
                100%{transform: translate(0, 0)}
            }

            .triangle-float2 {
                animation: float2 4s infinite;
            }

            @keyframes float3 {
                0%{transform: translate(0, 0)}
                50%{transform: translate(0, -10px)}
                100%{transform: translate(0, 0)}
            }

            .triangle-float3 {
                animation: float3 6s infinite;
            }
        </style></defs></svg>